<svg xmlns="http://www.w3.org/2000/svg" viewBox="0 0 300 300" width="300" height="300">
  <defs>
    <!-- Premium Gradienten -->
    <radialGradient id="glowRing" cx="50%" cy="50%">
      <stop offset="0%" style="stop-color:#E8C4A8;stop-opacity:0" />
      <stop offset="70%" style="stop-color:#E8C4A8;stop-opacity:0.4" />
      <stop offset="100%" style="stop-color:#E8C4A8;stop-opacity:0" />
    </radialGradient>
    
    <linearGradient id="pyramidGold" x1="0%" y1="0%" x2="0%" y2="100%">
      <stop offset="0%" style="stop-color:#f5d5bd;stop-opacity:1" />
      <stop offset="30%" style="stop-color:#E8C4A8;stop-opacity:1" />
      <stop offset="60%" style="stop-color:#d4a88a;stop-opacity:1" />
      <stop offset="100%" style="stop-color:#c09070;stop-opacity:1" />
    </linearGradient>
    
    <radialGradient id="eyeWhite" cx="45%" cy="40%">
      <stop offset="0%" style="stop-color:#ffffff;stop-opacity:1" />
      <stop offset="50%" style="stop-color:#f8f8f8;stop-opacity:1" />
      <stop offset="80%" style="stop-color:#ebebeb;stop-opacity:1" />
      <stop offset="100%" style="stop-color:#d8d8d8;stop-opacity:1" />
    </radialGradient>
    
    <radialGradient id="irisGold" cx="30%" cy="30%">
      <stop offset="0%" style="stop-color:#ffeaa7;stop-opacity:1" />
      <stop offset="20%" style="stop-color:#f0d8c4;stop-opacity:1" />
      <stop offset="50%" style="stop-color:#E8C4A8;stop-opacity:1" />
      <stop offset="75%" style="stop-color:#c8a382;stop-opacity:1" />
      <stop offset="100%" style="stop-color:#a87850;stop-opacity:1" />
    </radialGradient>
    
    <radialGradient id="pupilBlack" cx="25%" cy="25%">
      <stop offset="0%" style="stop-color:#1a1a1a;stop-opacity:1" />
      <stop offset="100%" style="stop-color:#000000;stop-opacity:1" />
    </radialGradient>
    
    <!-- Premium Filters -->
    <filter id="softGlow" x="-50%" y="-50%" width="200%" height="200%">
      <feGaussianBlur in="SourceGraphic" stdDeviation="4" result="blur"/>
      <feComponentTransfer in="blur" result="glow">
        <feFuncA type="linear" slope="1.5"/>
      </feComponentTransfer>
      <feMerge>
        <feMergeNode in="glow"/>
        <feMergeNode in="glow"/>
        <feMergeNode in="SourceGraphic"/>
      </feMerge>
    </filter>
    
    <filter id="strongGlow" x="-100%" y="-100%" width="300%" height="300%">
      <feGaussianBlur in="SourceGraphic" stdDeviation="8" result="blur"/>
      <feMerge>
        <feMergeNode in="blur"/>
        <feMergeNode in="blur"/>
        <feMergeNode in="blur"/>
        <feMergeNode in="SourceGraphic"/>
      </feMerge>
    </filter>
    
    <filter id="shadow3D">
      <feGaussianBlur in="SourceAlpha" stdDeviation="3"/>
      <feOffset dx="0" dy="5" result="offsetblur"/>
      <feComponentTransfer>
        <feFuncA type="linear" slope="0.5"/>
      </feComponentTransfer>
      <feMerge>
        <feMergeNode/>
        <feMergeNode in="SourceGraphic"/>
      </feMerge>
    </filter>
  </defs>
  
  <!-- Hintergrund Glow Circle -->
  <circle cx="150" cy="150" r="140" fill="url(#glowRing)" opacity="0.6"/>
  
  <!-- Strahlenkranz (Triangle Rays) -->
  <g opacity="0.5">
    <polygon points="150,150 145,50 155,50" fill="#E8C4A8" opacity="0.7"/>
    <polygon points="150,150 220,70 225,80" fill="#E8C4A8" opacity="0.6"/>
    <polygon points="150,150 250,145 250,155" fill="#E8C4A8" opacity="0.7"/>
    <polygon points="150,150 225,220 220,230" fill="#E8C4A8" opacity="0.6"/>
    <polygon points="150,150 155,250 145,250" fill="#E8C4A8" opacity="0.7"/>
    <polygon points="150,150 80,225 75,220" fill="#E8C4A8" opacity="0.6"/>
    <polygon points="150,150 50,155 50,145" fill="#E8C4A8" opacity="0.7"/>
    <polygon points="150,150 75,80 80,70" fill="#E8C4A8" opacity="0.6"/>
  </g>
  
  <!-- Pyramide mit 3D-Effekt -->
  <g filter="url(#shadow3D)">
    <!-- Basis der Pyramide -->
    <path d="M 150 60 L 60 200 L 240 200 Z" 
          fill="url(#pyramidGold)" 
          stroke="#a87850" 
          stroke-width="3"
          stroke-linejoin="miter"/>
    
    <!-- Licht-Seite (links) -->
    <path d="M 150 60 L 60 200 L 150 200 Z" 
          fill="rgba(255, 255, 255, 0.1)"/>
    
    <!-- Schatten-Seite (rechts) -->
    <path d="M 150 60 L 240 200 L 150 200 Z" 
          fill="rgba(0, 0, 0, 0.15)"/>
    
    <!-- Pyramiden Steinlinien -->
    <line x1="150" y1="60" x2="105" y2="140" stroke="#c09070" stroke-width="1" opacity="0.4"/>
    <line x1="150" y1="60" x2="195" y2="140" stroke="#c09070" stroke-width="1" opacity="0.4"/>
    <line x1="60" y1="170" x2="240" y2="170" stroke="#c09070" stroke-width="1.5" opacity="0.5"/>
    <line x1="70" y1="135" x2="230" y2="135" stroke="#c09070" stroke-width="1" opacity="0.4"/>
    <line x1="85" y1="100" x2="215" y2="100" stroke="#c09070" stroke-width="0.8" opacity="0.3"/>
  </g>
  
  <!-- ALL-SEEING EYE -->
  
  <!-- Äußere Augenform (Augenlider) -->
  <ellipse cx="150" cy="138" rx="56" ry="48" 
           fill="none" 
           stroke="#d8d8d8" 
           stroke-width="2"
           opacity="0.6"/>
  
  <!-- Augapfel (Weiß) -->
  <ellipse cx="150" cy="138" rx="54" ry="46" 
           fill="url(#eyeWhite)"
           filter="url(#softGlow)"/>
  
  <!-- Oberer Schatten des Augapfels -->
  <ellipse cx="150" cy="115" rx="54" ry="12" 
           fill="rgba(0, 0, 0, 0.12)"/>
  
  <!-- Unterer Glanz des Augapfels -->
  <ellipse cx="150" cy="160" rx="50" ry="10" 
           fill="rgba(255, 255, 255, 0.25)"/>
  
  <!-- Blutgefäße (Details) -->
  <path d="M 110 125 Q 120 130, 130 128" stroke="#e8b4b4" stroke-width="0.5" opacity="0.4" fill="none"/>
  <path d="M 190 125 Q 180 130, 170 128" stroke="#e8b4b4" stroke-width="0.5" opacity="0.4" fill="none"/>
  <path d="M 115 145 Q 125 148, 132 146" stroke="#e8b4b4" stroke-width="0.4" opacity="0.3" fill="none"/>
  
  <!-- Iris (Roségold) mit Filter -->
  <circle cx="150" cy="138" r="26" 
          fill="url(#irisGold)"
          filter="url(#strongGlow)"/>
  
  <!-- Iris Struktur (Radiating Fibers) -->
  <g opacity="0.4">
    <line x1="150" y1="112" x2="150" y2="122" stroke="#a87850" stroke-width="0.8"/>
    <line x1="162" y1="116" x2="158" y2="124" stroke="#a87850" stroke-width="0.7"/>
    <line x1="171" y1="126" x2="164" y2="131" stroke="#a87850" stroke-width="0.7"/>
    <line x1="174" y1="138" x2="166" y2="138" stroke="#a87850" stroke-width="0.8"/>
    <line x1="171" y1="150" x2="164" y2="145" stroke="#a87850" stroke-width="0.7"/>
    <line x1="162" y1="160" x2="158" y2="152" stroke="#a87850" stroke-width="0.7"/>
    <line x1="150" y1="164" x2="150" y2="154" stroke="#a87850" stroke-width="0.8"/>
    <line x1="138" y1="160" x2="142" y2="152" stroke="#a87850" stroke-width="0.7"/>
    <line x1="129" y1="150" x2="136" y2="145" stroke="#a87850" stroke-width="0.7"/>
    <line x1="126" y1="138" x2="134" y2="138" stroke="#a87850" stroke-width="0.8"/>
    <line x1="129" y1="126" x2="136" y2="131" stroke="#a87850" stroke-width="0.7"/>
    <line x1="138" y1="116" x2="142" y2="124" stroke="#a87850" stroke-width="0.7"/>
  </g>
  
  <!-- Iris Ring (Limbus) -->
  <circle cx="150" cy="138" r="26" 
          fill="none"
          stroke="#8a6540" 
          stroke-width="1.5"
          opacity="0.6"/>
  
  <!-- Pupille -->
  <circle cx="150" cy="138" r="11" 
          fill="url(#pupilBlack)"/>
  
  <!-- Pupillen-Ring -->
  <circle cx="150" cy="138" r="11" 
          fill="none"
          stroke="#000000" 
          stroke-width="0.8"
          opacity="0.7"/>
  
  <!-- Lichtreflexe (Realistisch) -->
  <ellipse cx="145" cy="132" rx="4" ry="5.5" 
           fill="#ffffff" 
           opacity="0.9"/>
  <ellipse cx="156" cy="140" rx="2" ry="2.5" 
           fill="#ffffff" 
           opacity="0.6"/>
  <circle cx="148" cy="143" r="1" 
          fill="#ffffff" 
          opacity="0.5"/>
  
  <!-- Highlight auf Iris -->
  <path d="M 142 128 Q 148 125, 154 128" 
        stroke="#ffffff" 
        stroke-width="1.5" 
        opacity="0.3" 
        fill="none"/>
  
  <!-- Äußerer mystischer Glow -->
  <circle cx="150" cy="138" r="60" 
          fill="none" 
          stroke="#E8C4A8" 
          stroke-width="2" 
          opacity="0.4"
          filter="url(#strongGlow)"/>
  
  <circle cx="150" cy="138" r="75" 
          fill="none" 
          stroke="#E8C4A8" 
          stroke-width="1" 
          opacity="0.2"
          filter="url(#strongGlow)"/>
</svg>